# AST/ASF file generated using VICON BodyLanguage
# -----------------------------------------------
:version 1.10
:name VICON
:units
  mass 1.0
  length 0.45
  angle deg
:documentation
   .ast/.asf automatically generated from VICON data using
   VICON BodyBuilder and BodyLanguage model FoxedUp or BRILLIANT.MOD
:root
   order TX TY TZ RX RY RZ
   axis XYZ
   position 0 0 0  
   orientation 0 0 0 
:bonedata
  begin
     id 1 
     name lhipjoint
     direction 0.63403 -0.759788 0.143974 
     length 2.51904 
     axis 0 0 0  XYZ
  end
  begin
     id 2 
     name lfemur
     direction 0.34202 -0.939693 0  
     length 7.42313  
     axis 0 0 20  XYZ
    dof rx ry rz
    limits (-160.0 20.0)
           (-70.0 70.0)
           (-60.0 70.0)
  end
  begin
     id 3 
     name ltibia
     direction 0.34202 -0.939693 0   
     length 8.10141   
     axis 0 0 20   XYZ
    dof rx
    limits (-10.0 170.0)
  end
  begin
     id 4 
     name lfoot
     direction 0.0927455 -0.254816 0.962532   
     length 2.14078   
     axis -90 7.62852e-016 20   XYZ
    dof rx rz
    limits (-45.0 90.0)
           (-70.0 20.0)
  end
  begin
     id 5 
     name ltoes
     direction 1.53556e-011 -4.21949e-011 1   
     length 1.07182   
     axis -90 7.62852e-016 20   XYZ
    dof rx
    limits (-90.0 20.0)
  end
  begin
     id 6 
     name rhipjoint
     direction -0.659892 -0.738223 0.139888   
     length 2.59263  
     axis 0 0 0  XYZ 
  end
  begin
     id 7 
     name rfemur
     direction -0.34202 -0.939693 0   
     length 7.58575   
     axis 0 0 -20   XYZ
    dof rx ry rz
    limits (-160.0 20.0)
           (-70.0 70.0)
           (-70.0 60.0)
  end
  begin
     id 8 
     name rtibia
     direction -0.34202 -0.939693 0   
     length 8.19358   
     axis 0 0 -20   XYZ
    dof rx
    limits (-10.0 170.0)
 end
 begin
     id 9 
     name rfoot
     direction -0.0856543 -0.235333 0.968133   
     length 2.13415  
     axis -90 -7.62852e-016 -20   XYZ
    dof rx rz
    limits (-45.0 90.0)
           (-20.0 70.0)
  end
  begin
     id 10 
     name rtoes
     direction -1.53551e-011 -4.21811e-011 1   
     length 1.07055   
     axis -90 -7.62852e-016 -20   XYZ
    dof rx
    limits (-90.0 20.0)
  end
  begin
     id 11 
     name lowerback
     direction 0.025219 0.998394 -0.0507326   
     length 1.91844   
     axis 0 0 0   XYZ
    dof rx ry rz
    limits (-20.0 45.0)
           (-30.0 30.0)
           (-30.0 30.0)
  end
  begin
     id 12 
     name upperback
     direction 0.0213103 0.99967 -0.0143101   
     length 1.92246   
     axis 0 0 0   XYZ
    dof rx ry rz
    limits (-20.0 45.0)
           (-30.0 30.0)
           (-30.0 30.0)
  end
  begin
     id 13 
     name thorax
     direction 0.00920974 0.99991 0.00971518   
     length 1.92239   
     axis 0 0 0   XYZ
    dof rx ry rz
    limits (-20.0 45.0)
           (-30.0 30.0)
           (-30.0 30.0)
  end
  begin
     id 14 
     name lowerneck
     direction 0.0598257 0.997249 0.0437612   
     length 3.13679   
     axis 0 0 0   XYZ
    dof rx ry rz
    limits (-20.0 45.0)
           (-30.0 30.0)
           (-30.0 30.0)
  end
  begin
     id 15 
     name upperneck
     direction -0.035342 0.999338 0.00863891   
     length 3.16283   
     axis 0 0 0   XYZ
    dof rx ry rz
    limits (-20.0 45.0)
           (-30.0 30.0)
           (-30.0 30.0)
  end
  begin
     id 16
     name head
     direction 0.37144 0.811566 0.450991  
     length 1.2838  
     axis 0 0 0   XYZ
    dof rx ry rz
    limits (-20.0 45.0)
           (-30.0 30.0)
           (-30.0 30.0)
  end
  begin
     id 17 
     name lclavicle
     direction 0.961094 0.274654 -0.0293862  
     length 3.63466  
     axis 0 0 0   XYZ
    dof ry rz
    limits (-20.0 10.0)
           (0.0 20.0)
  end
  begin
     id 18 
     name lhumerus
     direction 1 -4.48963e-011 1.10303e-027   
     length 5.12842   
     axis 180 -30 -90   XYZ
    dof rx ry rz
    limits (-60.0 90.0)
           (-90.0 90.0)
           (-90.0 90.0)
  end
  begin
     id 19
     name lradius
     direction 1 -4.48968e-011 4.13199e-027   
     length 3.47396   
     axis 180 -30 -90   XYZ
    dof rx
    limits (-10.0 170.0)
  end
  begin
     id 20
     name lwrist
     direction 1 -4.48948e-011 9.12708e-027   
     length 1.73698   
     axis -6.84618e-015 90 90   XYZ
    dof ry
    limits (-180.0 0.0)
 end
  begin
     id 21 
     name lhand
     direction 1 -4.49057e-011 1.82749e-026   
     length 0.728607   
     axis -1.16502e-014 90 90   XYZ
    dof rx rz
    limits (-90.0 90.0)
           (-45.0 45.0)
  end
  begin
     id 22 
     name lfingers
     direction 1 -4.48912e-011 3.64949e-026   
     length 0.587422   
     axis -2.33008e-014 90 90   XYZ
    dof rx
    limits (0.0 90.0)
  end
  begin
     id 23
     name lthumb
     direction 0.707107 -6.34995e-011 0.707107   
     length 0.843424   
     axis -90 45 5.69224e-014   XYZ
    dof rx rz
    limits (-45.0 45.0)
           (-45.0 45.0)
  end
  begin
     id 24 
     name rclavicle
     direction -0.90514 0.421881 -0.0523369   
     length 3.57139  
     axis 0 0 0   XYZ 
    dof ry rz
    limits (-10.0 20.0)
           (-20.0 0.0)
  end
  begin
     id 25 
     name rhumerus
     direction -1 -4.48954e-011 -1.76662e-027  
     length 5.48477   
     axis 180 30 90   XYZ
    dof rx ry rz
    limits (-90.0 60.0)
           (-90.0 90.0)
           (-90.0 90.0)
  end
  begin
     id 26 
     name rradius
     direction -1 -4.48982e-011 1.26841e-027   
     length 3.47856   
     axis 180 30 90   XYZ
    dof rx
    limits (-10.0 170.0)
  end
  begin
     id 27 
     name rwrist
     direction -1 -4.49037e-011 9.13554e-027   
     length 1.73928   
     axis -6.84618e-015 -90 -90   XYZ
    dof ry
    limits (-180.0 0.0)
  end
  begin
     id 28
     name rhand
     direction -1 -4.48871e-011 1.82397e-026   
     length 0.709974   
     axis -1.16502e-014 -90 -90   XYZ
    dof rx rz
    limits (-90.0 90.0)
           (-45.0 45.0)
  end
  begin
     id 29
     name rfingers
     direction -1 -4.48994e-011 3.65258e-026   
     length 0.572399   
     axis -2.33008e-014 -90 -90   XYZ
    dof rx
    limits (0.0 90.0)
  end
  begin
     id 30
     name rthumb
     direction -0.707107 -6.34861e-011 0.707107   
     length 0.821855   
     axis -90 -45 -5.69224e-014   XYZ
    dof rx rz
    limits (-45.0 45.0)
           (-45.0 45.0)
  end
:hierarchy
  begin
    root lhipjoint rhipjoint lowerback
    lhipjoint lfemur
    lfemur ltibia
    ltibia lfoot
    lfoot ltoes
    rhipjoint rfemur
    rfemur rtibia
    rtibia rfoot
    rfoot rtoes
    lowerback upperback
    upperback thorax
    thorax lowerneck lclavicle rclavicle
    lowerneck upperneck
    upperneck head
    lclavicle lhumerus
    lhumerus lradius
    lradius lwrist
    lwrist lhand lthumb
    lhand lfingers
    rclavicle rhumerus
    rhumerus rradius
    rradius rwrist
    rwrist rhand rthumb
    rhand rfingers
  end

#!OML:ASF F:\VICON\USERDATA\INSTALL\Justin1\Justin1.ASF
:FULLY-SPECIFIED
:DEGREES
1466
root -0.0571713 18.2421 -3.67251 5.74401 -1.62142 -3.2849
lowerback 2.42826 -1.11765 2.16869
upperback -1.27333 -1.33612 3.19865
thorax -2.64474 -0.676246 2.137
lowerneck -13.6228 -4.85768 -5.35027
upperneck 18.865 -5.37224 -0.678913
head 8.24045 -2.99779 0.0549744
rclavicle -1.55052e-014 1.27222e-014
rhumerus -32.7582 -10.5435 -78.8037
rradius 29.187
rwrist -1.23458
rhand -22.5318 15.3409
rfingers 7.12502
rthumb 3.89523 -14.6032
lclavicle -1.55052e-014 1.27222e-014
lhumerus -35.3552 10.0568 86.6031
lradius 30.7845
lwrist -18.2056
lhand -5.7101 26.377
lfingers 7.12502
lthumb 20.111 55.3561
rfemur -16.9775 7.67234 27.3758
rtibia 32.4543
rfoot -17.1835 -15.1873
rtoes 27.182
lfemur -14.3892 -9.04395 -18.2411
ltibia 29.2866
lfoot -17.175 10.3997
ltoes 5.91883
1467
root -0.0550985 18.2413 -3.6757 5.80251 -1.53224 -3.26766
lowerback 2.45328 -1.14005 2.12437
upperback -1.31989 -1.36436 3.21388
thorax -2.70485 -0.68953 2.18044
lowerneck -13.6041 -4.8437 -5.40113
upperneck 18.897 -5.3458 -0.663946
head 8.24941 -2.98782 0.0711463
rclavicle 2.29099e-014 -1.35174e-014
rhumerus -32.8055 -10.4806 -78.8054
rradius 29.2747
rwrist -1.04594
rhand -22.4007 15.5486
rfingers 7.12502
rthumb 4.0218 -14.3931
lclavicle 2.29099e-014 -1.35174e-014
lhumerus -35.3999 10.0068 86.6389
lradius 30.8165
lwrist -18.1693
lhand -5.80946 26.2122
lfingers 7.12502
lthumb 20.0155 55.2014
rfemur -17.0812 7.65151 27.3464
rtibia 32.487
rfoot -17.2177 -15.2045
rtoes 27.574
lfemur -14.5743 -8.83656 -18.2624
ltibia 29.4337
lfoot -17.2195 10.1697
ltoes 6.2024
1468
root -0.0520999 18.2395 -3.67891 5.86716 -1.38964 -3.27963
lowerback 2.47202 -1.17471 2.10354
upperback -1.35337 -1.40788 3.26997
thorax -2.74718 -0.710426 2.2533
lowerneck -13.6401 -4.86617 -5.52656
upperneck 18.9029 -5.34716 -0.658261
head 8.26245 -2.9967 0.0919382
rclavicle -9.0447e-015 1.59028e-014
rhumerus -32.8681 -10.2114 -78.8246
rradius 29.4543
rwrist -0.888992
rhand -22.3013 15.8301
rfingers 7.12502
rthumb 4.11781 -14.1098
lclavicle -9.0447e-015 1.59028e-014
lhumerus -35.4123 10.0571 86.7204
lradius 30.8588
lwrist -18.2584
lhand -5.88474 26.1741
lfingers 7.12502
lthumb 19.9431 55.1707
rfemur -17.1837 7.57686 27.3549
rtibia 32.5048
rfoot -17.1885 -15.2895
rtoes 27.4602
lfemur -14.7688 -8.71757 -18.2448
ltibia 29.5883
lfoot -17.2004 10.022
ltoes 5.69795
1469
root -0.0468499 18.2389 -3.6791 5.88633 -1.27389 -3.34602
lowerback 2.44811 -1.19903 2.19891
upperback -1.33372 -1.43801 3.29473
thorax -2.7146 -0.726902 2.22587
lowerneck -13.7068 -4.88082 -5.55384
upperneck 18.8886 -5.35322 -0.673458
head 8.27032 -3.00257 0.0890514
rclavicle 2.41523e-014 1.98785e-014
rhumerus -32.913 -9.91894 -78.9366
rradius 29.6545
rwrist -0.671102
rhand -22.1992 15.8992
rfingers 7.12502
rthumb 4.21641 -14.0388
lclavicle 2.41523e-014 1.98785e-014
lhumerus -35.3709 10.0425 86.7581
lradius 30.8908
lwrist -18.2037
lhand -5.67638 26.4004
lfingers 7.12502
lthumb 20.1434 55.3761
rfemur -17.2285 7.43749 27.4305
rtibia 32.5095
rfoot -17.0159 -15.4563
rtoes 26.5384
lfemur -14.8854 -8.67669 -18.1768
ltibia 29.719
lfoot -17.2812 9.84221
ltoes 5.62907
1470
root -0.0413388 18.2378 -3.68115 5.90041 -1.14675 -3.45723
lowerback 2.41429 -1.23432 2.35506
upperback -1.29613 -1.48208 3.31062
thorax -2.65955 -0.75137 2.15525
lowerneck -13.7963 -4.87675 -5.48425
upperneck 18.901 -5.34749 -0.718521
head 8.28687 -2.99929 0.0611296
rclavicle -8.54774e-015 -4.77083e-015
rhumerus -32.8936 -9.7003 -79.0736
rradius 29.8379
rwrist -0.426617
rhand -22.2004 15.8943
rfingers 7.12502
rthumb 4.21526 -14.0437
lclavicle -8.54774e-015 -4.77083e-015
lhumerus -35.3368 10.0522 86.7588
lradius 30.9656
lwrist -18.1557
lhand -5.18789 26.8943
lfingers 7.12502
lthumb 20.6129 55.8198
rfemur -17.2689 7.32181 27.5441
rtibia 32.5295
rfoot -16.9794 -15.521
rtoes 26.2795
lfemur -14.9699 -8.65221 -18.049
ltibia 29.7785
lfoot -17.3492 9.67404
ltoes 5.59463
1471
root -0.0356607 18.24 -3.6856 5.88022 -1.00346 -3.43097
lowerback 2.45921 -1.27298 2.37374
upperback -1.26699 -1.53263 3.2859
thorax -2.65497 -0.777054 2.12225
lowerneck -13.8034 -4.86306 -5.37083
upperneck 18.8163 -5.33621 -0.802583
head 8.25322 -2.99328 0.0174474
rclavicle 6.41081e-015 1.59028e-015
rhumerus -32.8997 -9.48949 -79.2205
rradius 30.0796
rwrist -0.254433
rhand -21.9183 16.1514
rfingers 7.12502
rthumb 4.48769 -13.7811
lclavicle 6.41081e-015 1.59028e-015
lhumerus -35.3662 10.013 86.7756
lradius 31.1178
lwrist -18.0959
lhand -5.07213 27.1554
lfingers 7.12502
lthumb 20.7241 56.0688
rfemur -17.2808 7.18778 27.5077
rtibia 32.5601
rfoot -16.9193 -15.5706
rtoes 25.7504
lfemur -14.982 -8.64769 -18.0792
ltibia 29.7678
lfoot -17.2762 9.5462
ltoes 5.36741
1472
root -0.0307773 18.2423 -3.68994 5.86801 -0.847824 -3.32154
lowerback 2.55027 -1.2903 2.27264
upperback -1.28421 -1.55528 3.25527
thorax -2.7216 -0.786953 2.15121
lowerneck -13.8405 -4.85848 -5.26393
upperneck 18.8356 -5.32937 -0.907807
head 8.25979 -2.99316 -0.0350594
rclavicle -2.01766e-014 3.81667e-014
rhumerus -32.9905 -9.27371 -79.3141
rradius 30.3035
rwrist 0.0266535
rhand -21.8194 16.5501
rfingers 7.12502
rthumb 4.58316 -13.3804
lclavicle -2.01766e-014 3.81667e-014
lhumerus -35.4282 9.94036 86.8387
lradius 31.2255
lwrist -18.0721
lhand -5.28365 27.017
lfingers 7.12502
lthumb 20.5209 55.9525
rfemur -17.3171 7.15821 27.3692
rtibia 32.6119
rfoot -17.0877 -15.5327
rtoes 26.6533
lfemur -14.9819 -8.56747 -18.1941
ltibia 29.6945
lfoot -17.2325 9.32064
ltoes 5.30234
1473
root -0.0255463 18.2423 -3.69193 5.87578 -0.736023 -3.27921
lowerback 2.60945 -1.28369 2.2421
upperback -1.31215 -1.54397 3.2482
thorax -2.78335 -0.780912 2.16272
lowerneck -13.9279 -4.8582 -5.28605
upperneck 18.9813 -5.31781 -0.90589
head 8.32518 -2.99054 -0.0340301
rclavicle -1.92821e-014 -1.59028e-015
rhumerus -33.1334 -9.03555 -79.3848
rradius 30.5651
rwrist 0.310291
rhand -21.8214 16.7554
rfingers 7.12502
rthumb 4.58127 -13.1751
lclavicle -1.92821e-014 -1.59028e-015
lhumerus -35.3519 9.75776 86.94
lradius 31.2056
lwrist -18.0017
lhand -5.12348 27.1464
lfingers 7.12502
lthumb 20.6748 56.0652
rfemur -17.3677 7.19084 27.2956
rtibia 32.6366
rfoot -17.1961 -15.5498
rtoes 27.3974
lfemur -15.0035 -8.48286 -18.2239
ltibia 29.6359
lfoot -17.3142 9.03212
ltoes 5.71127
1474
root -0.019826 18.2427 -3.6943 5.85298 -0.645259 -3.31376
lowerback 2.70956 -1.27747 2.27128
upperback -1.36545 -1.52716 3.2745
thorax -2.89526 -0.773006 2.1767
lowerneck -13.8534 -4.84882 -5.31268
upperneck 19.0827 -5.29945 -0.924534
head 8.34607 -2.98709 -0.0334577
rclavicle -5.36719e-015 6.36111e-015
rhumerus -33.3691 -8.70604 -79.4578
rradius 30.9678
rwrist 0.42927
rhand -21.6868 16.5263
rfingers 7.12502
rthumb 4.71119 -13.4013
lclavicle -5.36719e-015 6.36111e-015
lhumerus -35.2088 9.60591 87.0229
lradius 31.0816
lwrist -18.0433
lhand -4.40318 27.7821
lfingers 7.12502
lthumb 21.3668 56.6241
rfemur -17.3754 7.24409 27.312
rtibia 32.6654
rfoot -17.2959 -15.6064
rtoes 28.1389
lfemur -14.9739 -8.30788 -18.176
ltibia 29.5803
lfoot -17.443 8.71807
ltoes 5.73458
1475
root -0.014003 18.2394 -3.69767 5.83707 -0.512694 -3.54179
lowerback 2.73954 -1.28847 2.4641
upperback -1.37882 -1.52991 3.35845
thorax -2.92908 -0.777289 2.15685
lowerneck -13.6987 -4.83012 -5.26383
upperneck 19.0293 -5.2875 -0.961298
head 8.29733 -2.98137 -0.0472905
rclavicle 6.4605e-016 1.98785e-014
rhumerus -33.4525 -8.39041 -79.5582
rradius 31.1344
rwrist 0.58615
rhand -21.597 16.6421
rfingers 7.12502
rthumb 4.79789 -13.2836
lclavicle 6.4605e-016 1.98785e-014
lhumerus -35.1161 9.58609 87.076
lradius 31.0272
lwrist -18.2012
lhand -3.91471 28.248
lfingers 7.12502
lthumb 21.8359 57.036
rfemur -17.3735 7.20529 27.5491
rtibia 32.679
rfoot -17.3793 -15.5995
rtoes 28.7267
lfemur -14.9569 -8.16116 -17.91
ltibia 29.5538
lfoot -17.5111 8.44888
ltoes 5.47724
1476
root -0.00889487 18.2371 -3.69966 5.85334 -0.434201 -3.51335
lowerback 2.74062 -1.29537 2.39871
upperback -1.38381 -1.54133 3.36404
thorax -2.93268 -0.781687 2.19997
lowerneck -13.6412 -4.78845 -5.14102
upperneck 18.9845 -5.24092 -1.05939
head 8.26418 -2.96006 -0.0919956
rclavicle -1.44616e-014 -7.15625e-015
rhumerus -33.4657 -8.08453 -79.6919
rradius 31.2344
rwrist 0.761784
rhand -21.5582 17.0133
rfingers 7.12502
rthumb 4.83542 -12.9115
lclavicle -1.44616e-014 -7.15625e-015
lhumerus -35.0405 9.47249 87.1508
lradius 31.0268
lwrist -18.1002
lhand -4.91789 27.5535
lfingers 7.12502
lthumb 20.8723 56.4507
rfemur -17.4295 7.11322 27.4994
rtibia 32.7257
rfoot -17.4211 -15.5881
rtoes 28.6785
lfemur -14.9441 -7.96923 -17.93
ltibia 29.5068
lfoot -17.5442 8.15083
ltoes 5.46846
1477
root -0.00517562 18.2377 -3.69959 5.84985 -0.401026 -3.44677
lowerback 2.76613 -1.29811 2.28195
upperback -1.40437 -1.54758 3.36843
thorax -2.96483 -0.782588 2.27139
lowerneck -13.5808 -4.72418 -5.12352
upperneck 19.0165 -5.15918 -1.06274
head 8.26176 -2.92105 -0.0854603
rclavicle 1.55549e-014 -3.97569e-015
rhumerus -33.4746 -7.59819 -79.8684
rradius 31.4893
rwrist 0.882074
rhand -21.3581 16.7177
rfingers 7.12502
rthumb 5.02858 -13.2026
lclavicle 1.55549e-014 -3.97569e-015
lhumerus -35.0083 9.55219 87.1658
lradius 30.9909
lwrist -18.1869
lhand -6.42819 26.3254
lfingers 7.12502
lthumb 19.4207 55.3756
rfemur -17.4708 7.04183 27.4046
rtibia 32.7768
rfoot -17.4905 -15.4861
rtoes 29.2634
lfemur -14.9019 -7.76624 -17.9928
ltibia 29.4488
lfoot -17.6675 7.86296
ltoes 5.76742
1478
root -9.77883e-005 18.2377 -3.69575 5.85137 -0.39973 -3.39001
lowerback 2.68078 -1.31551 2.20256
upperback -1.37357 -1.57943 3.35841
thorax -2.88222 -0.796972 2.30397
lowerneck -13.6461 -4.64818 -5.1346
upperneck 19.1427 -5.05928 -1.00369
head 8.31577 -2.87012 -0.0560963
rclavicle -2.18166e-014 1.27222e-014
rhumerus -33.3941 -7.18468 -80.0974
rradius 31.7378
rwrist 1.0259
rhand -21.0942 16.6905
rfingers 7.12502
rthumb 5.28336 -13.2237
lclavicle -2.18166e-014 1.27222e-014
lhumerus -34.9782 9.76217 87.0868
lradius 31.056
lwrist -18.344
lhand -6.8757 25.8792
lfingers 7.12502
lthumb 18.9904 54.9721
rfemur -17.513 6.92438 27.3273
rtibia 32.8789
rfoot -17.5507 -15.3857
rtoes 29.4371
lfemur -14.8375 -7.5067 -18.0581
ltibia 29.3496
lfoot -17.8276 7.62055
ltoes 5.81348
1479
root 0.00377079 18.2396 -3.68832 5.84492 -0.38924 -3.31225
lowerback 2.57639 -1.32631 2.08337
upperback -1.31849 -1.60528 3.36004
thorax -2.76248 -0.80759 2.36942
lowerneck -13.8373 -4.60272 -5.13869
upperneck 19.3887 -4.97305 -1.04399
head 8.43078 -2.83647 -0.0672672
rclavicle -5.31749e-015 -2.94201e-014
rhumerus -33.2891 -6.8248 -80.2598
rradius 31.9638
rwrist 1.4129
rhand -20.7643 16.7339
rfingers 7.12502
rthumb 5.60196 -13.172
lclavicle -5.31749e-015 -2.94201e-014
lhumerus -34.9542 9.70902 87.1437
lradius 31.2073
lwrist -18.2804
lhand -6.67487 26.0802
lfingers 7.12502
lthumb 19.1835 55.1541
rfemur -17.5162 6.88506 27.2328
rtibia 32.9857
rfoot -17.6085 -15.3702
rtoes 29.507
lfemur -14.7819 -7.32758 -18.1546
ltibia 29.3058
lfoot -17.8885 7.43969
ltoes 5.49815
